<svg width="32" height="32" viewBox="0 0 32 32" fill="none" xmlns="http://www.w3.org/2000/svg">
<path fill-rule="evenodd" clip-rule="evenodd" d="M8.00078 14.4002V11.2002C8.00078 6.78192 11.5825 3.2002 16.0008 3.2002C20.4191 3.2002 24.0008 6.78192 24.0008 11.2002V14.4002C25.7681 14.4002 27.2008 15.8329 27.2008 17.6002V25.6002C27.2008 27.3675 25.7681 28.8002 24.0008 28.8002H8.00078C6.23347 28.8002 4.80078 27.3675 4.80078 25.6002V17.6002C4.80078 15.8329 6.23347 14.4002 8.00078 14.4002ZM20.8008 11.2002V14.4002H11.2008V11.2002C11.2008 8.54923 13.3498 6.4002 16.0008 6.4002C18.6517 6.4002 20.8008 8.54923 20.8008 11.2002Z" fill="#0F172A"/>
</svg>
