<svg width="194" height="26" viewBox="0 0 194 26" fill="none" xmlns="http://www.w3.org/2000/svg">
<path d="M0.55925 2.344H9.58325C15.4393 2.344 21.0073 6.056 21.0073 13.672C21.0073 21.704 14.0312 25 9.10325 25H0.55925V2.344ZM4.59125 21.352H7.75925C12.5913 21.352 16.7833 19.176 16.7833 13.672C16.7833 8.168 13.2313 5.992 8.30325 5.992H4.59125V21.352ZM26.4405 2.12C27.8485 2.12 28.9365 3.112 28.9365 4.424C28.9365 5.8 27.8165 6.728 26.4405 6.728C25.0645 6.728 24.0085 5.672 24.0085 4.424C24.0085 3.176 25.0645 2.12 26.4405 2.12ZM28.3925 9.64V25H24.5525V9.64H28.3925ZM37.377 25.384C34.209 25.384 31.777 23.592 31.777 20.776C31.777 17.224 34.625 15.432 41.217 15.432H42.401V14.984C42.401 13.192 40.993 12.136 38.881 12.136C37.281 12.136 35.841 12.776 34.785 13.736L32.769 11.72C34.145 10.312 36.289 9.256 39.297 9.256C44.545 9.256 45.857 12.2 45.857 15.816V25H42.401V22.888H42.305C41.217 24.616 39.425 25.384 37.377 25.384ZM41.057 18.12C37.665 18.12 35.617 18.856 35.617 20.488C35.617 21.8 36.897 22.504 38.337 22.504C40.961 22.504 42.177 21.032 42.177 19.08V18.12H41.057ZM61.0925 1.768C64.3245 1.768 66.8845 2.92 69.0285 5.352L65.8925 7.656C64.5805 6.248 63.1085 5.416 61.1245 5.416C56.4845 5.416 53.3485 9 53.3485 13.512C53.3485 18.184 56.3565 21.928 61.1245 21.928C63.2685 21.928 64.9325 20.808 66.2125 19.176L69.5405 21.544C67.5885 24.296 64.4205 25.576 61.0925 25.576C54.1165 25.576 49.1245 20.808 49.1245 13.768C49.1245 6.728 53.8605 1.768 61.0925 1.768ZM71.8948 9.64H75.7348V17.576C75.7348 20.648 76.6948 21.928 78.5508 21.928C80.8228 21.928 82.0708 20.392 82.0708 18.024V9.64H85.9108V25H82.2628V22.536H82.1988C81.3028 24.456 79.6708 25.384 77.4948 25.384C73.0148 25.384 71.8948 21.992 71.8948 19.464V9.64ZM90.2698 25V9.64H94.1098V12.072H94.1738C95.0058 10.312 96.7018 9.256 98.7178 9.256C99.2938 9.256 99.5818 9.352 100.094 9.48V13.192C99.3578 13 98.8138 12.904 98.2378 12.904C95.3258 12.904 94.1098 14.952 94.1098 17V25H90.2698ZM107.283 25.384C104.115 25.384 101.683 23.592 101.683 20.776C101.683 17.224 104.531 15.432 111.123 15.432H112.307V14.984C112.307 13.192 110.899 12.136 108.787 12.136C107.187 12.136 105.747 12.776 104.691 13.736L102.675 11.72C104.051 10.312 106.195 9.256 109.203 9.256C114.451 9.256 115.763 12.2 115.763 15.816V25H112.307V22.888H112.211C111.123 24.616 109.331 25.384 107.283 25.384ZM110.963 18.12C107.571 18.12 105.523 18.856 105.523 20.488C105.523 21.8 106.803 22.504 108.243 22.504C110.867 22.504 112.083 21.032 112.083 19.08V18.12H110.963ZM126.711 15.496V18.76H118.807V15.496H126.711Z" fill="#107BC0"/>
<path d="M130.437 25V2.344H136.581L142.629 18.216L148.741 2.344H154.821V25H150.981V6.184H150.917L144.037 25H141.221L134.341 6.184H134.277V25H130.437ZM167.198 9.256C172.062 9.256 174.398 12.936 174.398 17.576V18.664H162.686C162.942 20.872 164.606 22.312 166.814 22.312C168.542 22.312 169.854 21.576 170.942 20.232L173.694 22.312C172.03 24.36 169.822 25.384 167.198 25.384C162.494 25.384 158.846 22.12 158.846 17.32C158.846 12.552 162.494 9.256 167.198 9.256ZM162.686 15.784H170.558C170.526 13.384 168.894 12.136 166.622 12.136C164.35 12.136 162.974 13.608 162.686 15.784ZM189.957 0.807999H193.797V25H190.149V22.696H190.085C188.933 24.584 186.917 25.384 184.773 25.384C180.101 25.384 177.221 21.928 177.221 17.32C177.221 12.968 180.101 9.256 184.645 9.256C186.693 9.256 188.549 9.96 189.861 11.592H189.957V0.807999ZM181.061 17.32C181.061 19.88 182.885 21.928 185.573 21.928C188.645 21.928 190.085 19.432 190.085 17.32C190.085 14.536 188.005 12.712 185.573 12.712C182.885 12.712 181.061 14.792 181.061 17.32Z" fill="#094063"/>
</svg>
