<svg width="32" height="32" viewBox="0 0 32 32" fill="none" xmlns="http://www.w3.org/2000/svg">
<path fill-rule="evenodd" clip-rule="evenodd" d="M29.1767 18.8606C30.736 18.8394 31.9831 17.5582 31.9623 15.999C31.9414 14.4397 30.6605 13.1929 29.1012 13.2141L18.851 13.3533L18.7123 2.97921C18.6916 1.43213 17.4207 0.195011 15.8736 0.216022C14.3265 0.237033 13.0891 1.50822 13.1098 3.0553L13.2865 16.2747C13.3072 17.8217 14.5782 19.0589 16.1252 19.0378C16.1281 19.0378 16.1309 19.0378 16.1338 19.0377C16.1386 19.0377 16.1435 19.0376 16.1484 19.0375L29.1767 18.8606Z" fill="#107BC0"/>
<path fill-rule="evenodd" clip-rule="evenodd" d="M13.0732 29.1988C13.0732 30.746 14.3275 32.0003 15.8747 32.0003C17.4219 32.0003 18.6762 30.746 18.6762 29.1988V16.0446C18.6764 16.0298 18.6765 16.0151 18.6765 16.0003C18.6765 15.9818 18.6764 15.9633 18.676 15.9448C18.6581 14.413 17.4108 13.1768 15.8747 13.1768C15.8693 13.1768 15.8638 13.1768 15.8583 13.1768C15.8566 13.1768 15.8548 13.1768 15.853 13.1768H2.82353C1.26414 13.1768 0 14.4409 0 16.0003C0 17.5597 1.26413 18.8239 2.82353 18.8239H13.0732V29.1988Z" fill="black"/>
</svg>
