<svg width="40" height="40" viewBox="0 0 40 40" fill="none" xmlns="http://www.w3.org/2000/svg">
<g clip-path="url(#clip0_370_1403)">
<path d="M29.4298 20.0117C29.0406 20.0517 28.668 20.1896 28.3465 20.4126C28.0251 20.6355 27.7653 20.9362 27.5915 21.2867L26.1665 24.1583L22.9881 24.62C22.1215 24.74 21.3881 25.3533 21.1148 26.1933L21.0515 26.4267C20.8848 27.2017 21.1281 28.0167 21.7065 28.5767L24.0015 30.805L23.4581 33.9583C23.3869 34.3842 23.4358 34.8214 23.5994 35.221C23.7629 35.6205 24.0347 35.9666 24.384 36.2202C24.7334 36.4738 25.1466 36.625 25.5772 36.6568C26.0077 36.6886 26.4386 36.5996 26.8215 36.4L29.6681 34.9083L32.5148 36.4017C32.8968 36.6028 33.3275 36.693 33.7581 36.662C34.1887 36.6311 34.6021 36.4803 34.9515 36.2267L35.1381 36.0767C35.4305 35.8147 35.6515 35.4827 35.7803 35.1118C35.9092 34.741 35.9417 34.3435 35.8748 33.9567L35.3331 30.805L37.6331 28.5733C38.2665 27.955 38.4931 27.0333 38.2198 26.195L38.1348 25.9717C37.9752 25.6138 37.7275 25.3022 37.4147 25.0661C37.1019 24.83 36.7344 24.6771 36.3465 24.6217L33.1681 24.1583L31.7465 21.2883C31.5542 20.9015 31.2578 20.576 30.8907 20.3484C30.5235 20.1208 30.1001 20.0001 29.6681 20L29.4298 20.0117Z" fill="#05273C"/>
<path d="M10.0939 20.0117C9.70471 20.0517 9.33203 20.1896 9.01058 20.4126C8.68913 20.6355 8.42937 20.9362 8.25552 21.2867L6.83052 24.1583L3.65219 24.62C2.78552 24.74 2.05219 25.3533 1.77886 26.1933L1.71552 26.4267C1.54886 27.2017 1.79219 28.0167 2.37052 28.5767L4.66552 30.805L4.12219 33.9583C4.05095 34.3842 4.09986 34.8214 4.26342 35.221C4.42698 35.6205 4.69872 35.9666 5.0481 36.2202C5.39748 36.4738 5.81067 36.625 6.24124 36.6568C6.67181 36.6886 7.10271 36.5996 7.48552 36.4L10.3322 34.9083L13.1789 36.4017C13.5609 36.6028 13.9916 36.693 14.4222 36.662C14.8528 36.6311 15.2662 36.4803 15.6155 36.2267L15.8022 36.0767C16.0945 35.8147 16.3155 35.4827 16.4444 35.1118C16.5732 34.741 16.6058 34.3435 16.5389 33.9567L15.9989 30.805L18.2989 28.5733C18.9322 27.955 19.1589 27.0333 18.8855 26.195L18.8005 25.9717C18.6409 25.6138 18.3932 25.3022 18.0804 25.0661C17.7677 24.83 17.4001 24.6771 17.0122 24.6217L13.8322 24.1567L12.4105 21.2867C12.218 20.9001 11.9215 20.575 11.5544 20.3477C11.1873 20.1204 10.764 20 10.3322 20L10.0939 20.0117Z" fill="#05273C"/>
<path d="M19.7618 3.34467C19.3727 3.3847 19 3.52261 18.6786 3.74556C18.3571 3.96851 18.0973 4.26923 17.9235 4.61967L16.4985 7.49134L13.3202 7.95301C12.4535 8.07301 11.7202 8.68634 11.4468 9.52634L11.3835 9.75967C11.2168 10.5347 11.4602 11.3497 12.0385 11.9097L14.3335 14.138L13.7902 17.2913C13.7189 17.7172 13.7678 18.1544 13.9314 18.554C14.095 18.9535 14.3667 19.2996 14.7161 19.5532C15.0655 19.8069 15.4786 19.958 15.9092 19.9898C16.3398 20.0216 16.7707 19.9326 17.1535 19.733L20.0002 18.243L22.8485 19.7363C23.2305 19.9374 23.6612 20.0276 24.0918 19.9967C24.5224 19.9658 24.9358 19.815 25.2852 19.5613L25.4718 19.4113C25.7642 19.1493 25.9852 18.8173 26.114 18.4465C26.2429 18.0757 26.2754 17.6782 26.2085 17.2913L25.6668 14.138L27.9668 11.9063C28.6002 11.288 28.8268 10.3663 28.5535 9.52801L28.4685 9.30468C28.3089 8.94677 28.0612 8.63519 27.7484 8.39909C27.4356 8.16299 27.0681 8.01008 26.6802 7.95467L23.5002 7.48967L22.0785 4.61967C21.886 4.23315 21.5895 3.90797 21.2224 3.68068C20.8552 3.45338 20.432 3.33298 20.0002 3.33301L19.7618 3.34467Z" fill="#05273C"/>
</g>
<defs>
<clipPath id="clip0_370_1403">
<rect width="40" height="40" fill="white"/>
</clipPath>
</defs>
</svg>
