<svg width="30" height="30" viewBox="0 0 30 30" fill="none" xmlns="http://www.w3.org/2000/svg">
<path d="M3 15.75C3 14.5074 4.00736 13.5 5.25 13.5C6.49264 13.5 7.5 14.5074 7.5 15.75V24.75C7.5 25.9926 6.49264 27 5.25 27C4.00736 27 3 25.9926 3 24.75V15.75Z" fill="#0F172A"/>
<path d="M9 15.5V23.6459C9 24.7822 9.64201 25.821 10.6584 26.3292L10.7331 26.3666C11.5663 26.7831 12.4849 27 13.4164 27H21.5406C22.9706 27 24.2019 25.9906 24.4823 24.5883L26.2823 15.5884C26.6536 13.732 25.2337 12 23.3406 12H18V6C18 4.34315 16.6569 3 15 3C14.1716 3 13.5 3.67157 13.5 4.5V5.5C13.5 6.79822 13.0789 8.06142 12.3 9.1L10.2 11.9C9.42107 12.9386 9 14.2018 9 15.5Z" fill="#0F172A"/>
</svg>
